<?xml version="1.0" encoding="utf-8"?>
<?xml-stylesheet type="text/xsl" href="rss1.xsl"?>
<rss version="2.0" xmlns:atom="http://www.w3.org/2005/Atom" xmlns:content="http://purl.org/rss/1.0/modules/content/" xmlns:dc="http://purl.org/dc/elements/1.1/" xmlns:media="http://search.yahoo.com/mrss/">
<channel>
 <title>Getty</title>
 <link>http://www.gettyimg.com/</link>
 <atom:link href="http://www.gettyimg.com/" rel="self" type="application/rss+xml" />

 
                <item>
                <title><![CDATA[【Singles (lossless)】FLAC - Zayn - What I Am | FLAC Loseless | 24bits/48.0 kHz | 1 706 kb/s |]]></title>
                <link><![CDATA[https://sharemania.us/threads/zayn-what-i-am-flac-loseless-24bits-48-0-khz-1-706-kb-s.243901/]]></link>
                <description><![CDATA[<article>
<blockquote class="messageText SelectQuoteContainer ugc baseHtml">
<b><img src="https://static.qobuz.com/images/covers/fa/fy/hiqm9cuk8fyfa_org.jpg" class="bbCodeImage LbImage" alt="[​IMG]" data-url="https://static.qobuz.com/images/covers/fa/fy/hiqm9cuk8fyfa_org.jpg" style=""> <br>
File Information:</b><br>
Format: FLAC<br>
Format/Info: Free Lossless Audio Codec<br>
File size: 43.0 MiB<br>
Duration: 3 min 31 s<br>
Overall bit rate mode: Variable<br>
Overall bit rate: 1 706 kb/s<br>
Album: ROOM UNDER THE STAIRS<br>
Album/Performer: ZAYN<br>
Track Name: What I Am<br>
Track name/Position: 2<br>
Track name/Total: 15<br>
Performer: ZAYN<br>
Composer: Zain Javadd Malik<br>
Label: ZAYN<br>
Genre: Alternative Rock/General<br>
Copyright: ℗© 2024 Drop Zed Music, LLC, under an exclusive license to Mercury Records / Republic Records, a division of UMG Recordings, Inc.<br>
<br>
<b>Audio Information:</b><br>
Format: FLAC<br>
Format/Info: Free Lossless Audio Codec<br>
Duration: 3 min 31 s<br>
Bit rate mode: Variable<br>
Bit rate: 1 706 kb/s<br>
Channel(s): 2 channels<br>
Channel layout: L R<br>
Sampling rate: 48.0 kHz<br>
Bit depth: 24 bits<br>
Compression mode: Lossless<br>
Stream size: 42.4 MiB (99%)<br>
<br>
<div class="bbCodeBlock bbCodeVfcHH HiddenContent">
<div class="attribution type">Hidden Content:</div>
<blockquote>You must reply before you can see the hidden data contained here.</blockquote>
</div>
<div class="messageTextEndMarker">&nbsp;</div>
</blockquote>
</article>]]></description>
                <author><![CDATA[kkgonea13]]></author>
                </item>

                
                <item>
                <title><![CDATA[【Singles (lossless)】ALAC - Faouzia - What A Woman | 24bit/44.1kHz | Apple Alac |]]></title>
                <link><![CDATA[https://sharemania.us/threads/faouzia-what-a-woman-24bit-44-1khz-apple-alac.243902/]]></link>
                <description><![CDATA[<article>
<blockquote class="messageText SelectQuoteContainer ugc baseHtml">
<div style="text-align: center"><img src="https://is1-ssl.mzstatic.com/image/thumb/Music221/v4/4c/7b/ed/4c7bed93-491e-f71b-85f2-d8de33f15674/075679649997.jpg/1000x1000bb.jpg" class="bbCodeImage LbImage" alt="[​IMG]" data-url="https://is1-ssl.mzstatic.com/image/thumb/Music221/v4/4c/7b/ed/4c7bed93-491e-f71b-85f2-d8de33f15674/075679649997.jpg/1000x1000bb.jpg" style=""><br>
<img src="https://i.postimg.cc/MGmvZnxz/apple-music-hifi-Howpple-Apple-Music-mejor-calidad-modified.png" class="bbCodeImage LbImage" alt="[​IMG]" data-url="https://i.postimg.cc/MGmvZnxz/apple-music-hifi-Howpple-Apple-Music-mejor-calidad-modified.png" style=""><br>
​</div>
<div class="ToggleTriggerAnchor bbCodeSpoilerContainer">
<button type="button" class="button bbCodeSpoilerButton ToggleTrigger Tooltip JsOnly" data-target="> .SpoilerTarget"><span>Spoiler: <span class="SpoilerTitle">ALAC</span></span></button>
<div class="SpoilerTarget bbCodeSpoilerText">
<div class="bbCodeBlock bbCodeCode">
<div class="type">Code:</div>
<pre>General
Complete name                            : 01. What A Woman.m4a
Format                                   : MPEG-4
Format profile                           : Apple audio with iTunes info
Codec ID                                 : M4A  (M4A /mp42/isom)
File size                                : 26.9 MiB
Duration                                 : 2 min 21 s
Overall bit rate mode                    : Variable
Overall bit rate                         : 1 589 kb/s
Album                                    : What A Woman - Single
Album/Performer                          : Faouzia
Track name                               : What A Woman
Track name/Position                      : 1
Track name/Total                         : 2
Performer                                : Faouzia
Composer                                 : Ben Johnson, Faouzia Ouihya, Madison Love, Mikkel S. Eriksen &amp; Tor Erik Hermansen
Genre                                    : Pop
Recorded date                            : 2024
Encoded date                             : 2024-04-30 19:46:48 UTC
Tagged date                              : 2024-04-30 19:46:48 UTC
ISRC                                     : USAT22402618
Copyright                                : ℗ 2024 Atlantic Records Group LLC
LABEL                                    : Atlantic Records
UPC                                      : 075679649997

Audio
ID                                       : 1
Format                                   : ALAC
Codec ID                                 : alac
Codec ID/Info                            : Apple Lossless Audio Codec
Duration                                 : 2 min 21 s
Duration_LastFrame                       : -43 ms
Bit rate mode                            : Variable
Bit rate                                 : 1 589 kb/s
Nominal bit rate                         : 2 117 kb/s
Channel(s)                               : 2 channels
Sampling rate                            : 44.1 kHz
Bit depth                                : 24 bits
Stream size                              : 26.9 MiB (100%)
Title                                    : Core Media Audio
Encoded date                             : 2024-04-30 19:46:48 UTC
Tagged date                              : 2024-04-30 19:46:48 UTC</pre>
</div><div style="text-align: center">​</div></div>
</div><div style="text-align: center">​</div><div style="text-align: left"><b><span style="font-size: 18px"><span style="color: #404040">Tracks</span></span><br>
1- What A Woman - </b>02:22<br>
<b>2- Fur Elise - </b>02:44​</div><div style="text-align: center"><br>
Released 3 May 2024<br>
℗ 2024 Atlantic Records Group LLC<br>
<div class="bbCodeBlock bbCodeVfcHH HiddenContent">
<div class="attribution type">Hidden Content:</div>
<blockquote>You must reply before you can see the hidden data contained here.</blockquote>
</div></div>
<div class="messageTextEndMarker">&nbsp;</div>
</blockquote>
</article>]]></description>
                <author><![CDATA[fstambuk]]></author>
                </item>

                
                <item>
                <title><![CDATA[【Requests】[REQ AUD] - Yellow Claw - DRXGS]]></title>
                <link><![CDATA[https://sharemania.us/threads/yellow-claw-drxgs.243899/]]></link>
                <description><![CDATA[<article>
<blockquote class="messageText SelectQuoteContainer ugc baseHtml">
Does anyone have these song in FLAC?
<div class="messageTextEndMarker">&nbsp;</div>
</blockquote>
</article>]]></description>
                <author><![CDATA[texas2]]></author>
                </item>

                
                <item>
                <title><![CDATA[【Singles (lossy)】Dolby Atmos - Kendrick Lamar - euphoria [E-AC3-JOC | 16bits/48kHz | 5.1 | 768kbits]]]></title>
                <link><![CDATA[https://sharemania.us/threads/kendrick-lamar-euphoria-e-ac3-joc-16bits-48khz-5-1-768kbits.243900/]]></link>
                <description><![CDATA[<article>
<blockquote class="messageText SelectQuoteContainer ugc baseHtml">
<img src="https://a5.mzstatic.com/us/r1000/0/Music221/v4/c5/f5/d8/c5f5d812-ee54-9534-1e4c-bd78877d87ad/24UMGIM50373.rgb.jpg" class="bbCodeImage LbImage" alt="[​IMG]" data-url="https://a5.mzstatic.com/us/r1000/0/Music221/v4/c5/f5/d8/c5f5d812-ee54-9534-1e4c-bd78877d87ad/24UMGIM50373.rgb.jpg" style=""><br>
<br>
<span style="font-family: 'Book Antiqua'"><b><b>Artist</b>: </b>Kendrick Lamar<br>
<b><b>Single</b>: </b>euphoria<br>
<b><b>Release</b>: </b>30/04/2024<br>
<b>Format</b>: .m4a Enhanced AC-3 with Joint Object Coding<br>
<b>Sample Rate</b>: 768 Kbps, 48.000 kHz - 5.1 Surround Sound<br>
<b>Quality</b>: High Quality, Lossy Audio, Apple Core Media Audio</span><br>
<b><span style="font-family: 'Book Antiqua'"><b>Source</b>: <a href="https://music.apple.com/us/album/euphoria-single/1744024729" target="_blank" class="externalLink" rel="nofollow">Apple Music</a></span></b><br>
<br>
<div class="bbCodeBlock bbCodeVfcHH HiddenContent">
<div class="attribution type">Hidden Content:</div>
<blockquote>You must reply before you can see the hidden data contained here.</blockquote>
</div>
<div class="messageTextEndMarker">&nbsp;</div>
</blockquote>
</article>]]></description>
                <author><![CDATA[SonMaxime]]></author>
                </item>

                </channel></rss>